<svg width="30" height="30" viewBox="0 0 30 30" fill="none" xmlns="http://www.w3.org/2000/svg">
<g id="house-fill 2">
<path id="Vector" d="M27.6562 10.0148C27.4807 9.81441 27.2645 9.65368 27.0221 9.54335C26.7796 9.43302 26.5164 9.37563 26.25 9.375H21.9879L15.7031 2.19492C15.6151 2.09516 15.5069 2.01527 15.3857 1.96054C15.2645 1.90582 15.133 1.87752 15 1.87752C14.867 1.87752 14.7355 1.90582 14.6142 1.96054C14.493 2.01527 14.3848 2.09516 14.2968 2.19492L8.01208 9.375H3.74997C3.48286 9.375 3.21883 9.43208 2.97557 9.5424C2.73231 9.65272 2.51543 9.81375 2.33945 10.0147C2.16347 10.2156 2.03246 10.4519 1.95518 10.7076C1.8779 10.9632 1.85615 11.2325 1.89138 11.4973L3.51559 23.6859C3.57581 24.1364 3.79759 24.5497 4.13968 24.8489C4.48177 25.1481 4.92089 25.3128 5.37536 25.3125H24.6246C25.0791 25.3128 25.5182 25.1481 25.8603 24.8489C26.2023 24.5497 26.4241 24.1364 26.4843 23.6859L28.1097 11.4984C28.1444 11.2331 28.1218 10.9634 28.0436 10.7075C27.9654 10.4516 27.8333 10.2155 27.6562 10.0148ZM9.56247 21.5625C9.53085 21.5642 9.49917 21.5642 9.46755 21.5625C9.23433 21.5637 9.00905 21.4779 8.8357 21.3218C8.66234 21.1658 8.55337 20.9508 8.53005 20.7187L7.8738 14.1562C7.84893 13.9089 7.92337 13.6617 8.08072 13.4692C8.23808 13.2767 8.46546 13.1545 8.71286 13.1297C8.96026 13.1048 9.2074 13.1793 9.39992 13.3366C9.59243 13.494 9.71456 13.7214 9.73942 13.9687L10.3957 20.5312C10.4219 20.7785 10.3489 21.026 10.1926 21.2194C10.0364 21.4128 9.80971 21.5362 9.56247 21.5625ZM15.9375 20.625C15.9375 20.8736 15.8387 21.1121 15.6629 21.2879C15.4871 21.4637 15.2486 21.5625 15 21.5625C14.7513 21.5625 14.5129 21.4637 14.3371 21.2879C14.1612 21.1121 14.0625 20.8736 14.0625 20.625V14.0625C14.0625 13.8139 14.1612 13.5754 14.3371 13.3996C14.5129 13.2238 14.7513 13.125 15 13.125C15.2486 13.125 15.4871 13.2238 15.6629 13.3996C15.8387 13.5754 15.9375 13.8139 15.9375 14.0625V20.625ZM10.5035 9.375L15 4.23633L19.4965 9.375H10.5035ZM22.1203 14.1562L21.464 20.7187C21.4408 20.9498 21.3327 21.164 21.1606 21.3199C20.9884 21.4758 20.7646 21.5622 20.5324 21.5625C20.5008 21.5642 20.4691 21.5642 20.4375 21.5625C20.315 21.5502 20.1961 21.5139 20.0876 21.4556C19.9792 21.3974 19.8832 21.3183 19.8053 21.223C19.7274 21.1277 19.669 21.0179 19.6335 20.9C19.598 20.7822 19.5861 20.6584 19.5984 20.5359L20.2547 13.9734C20.2795 13.726 20.4016 13.4986 20.5942 13.3413C20.7867 13.1839 21.0338 13.1095 21.2812 13.1344C21.5286 13.1592 21.756 13.2814 21.9134 13.4739C22.0707 13.6664 22.1451 13.9135 22.1203 14.1609V14.1562Z" fill="white"/>
</g>
</svg>
