<svg width="30" height="30" viewBox="0 0 30 30" fill="none" xmlns="http://www.w3.org/2000/svg">
<g id="house-fill 2">
<path id="Vector" d="M26.25 13.541V24.375C26.25 24.8723 26.0525 25.3492 25.7008 25.7008C25.3492 26.0525 24.8723 26.25 24.375 26.25H19.6875C19.1902 26.25 18.7133 26.0525 18.3617 25.7008C18.01 25.3492 17.8125 24.8723 17.8125 24.375V19.6875C17.8125 19.4389 17.7137 19.2004 17.5379 19.0246C17.3621 18.8488 17.1236 18.75 16.875 18.75H13.125C12.8764 18.75 12.6379 18.8488 12.4621 19.0246C12.2863 19.2004 12.1875 19.4389 12.1875 19.6875V24.375C12.1875 24.8723 11.99 25.3492 11.6383 25.7008C11.2867 26.0525 10.8098 26.25 10.3125 26.25H5.625C5.12772 26.25 4.65081 26.0525 4.29917 25.7008C3.94754 25.3492 3.75 24.8723 3.75 24.375V13.541C3.74996 13.2815 3.80379 13.0248 3.90808 12.7872C4.01236 12.5496 4.16484 12.3362 4.35586 12.1606L13.7309 3.31524L13.7437 3.30235C14.0889 2.98844 14.5387 2.8145 15.0053 2.8145C15.4718 2.8145 15.9216 2.98844 16.2668 3.30235C16.2708 3.30693 16.2751 3.31124 16.2797 3.31524L25.6547 12.1606C25.8438 12.3371 25.9943 12.5509 26.0968 12.7885C26.1992 13.0261 26.2514 13.2823 26.25 13.541Z" fill="white"/>
</g>
</svg>
