<svg width="70" height="70" viewBox="0 0 70 70" fill="none" xmlns="http://www.w3.org/2000/svg">
  <path d="M59.0625 10.9375H10.9375C9.77718 10.9375 8.66438 11.3984 7.84391 12.2189C7.02344 13.0394 6.5625 14.1522 6.5625 15.3125V54.6875C6.5625 55.8478 7.02344 56.9606 7.84391 57.7811C8.66438 58.6016 9.77718 59.0625 10.9375 59.0625H59.0625C60.2228 59.0625 61.3356 58.6016 62.1561 57.7811C62.9766 56.9606 63.4375 55.8478 63.4375 54.6875V15.3125C63.4375 14.1522 62.9766 13.0394 62.1561 12.2189C61.3356 11.3984 60.2228 10.9375 59.0625 10.9375ZM59.0625 15.3125V43.4082L51.934 36.2824C51.5277 35.8761 51.0454 35.5537 50.5145 35.3338C49.9836 35.1139 49.4147 35.0007 48.84 35.0007C48.2654 35.0007 47.6964 35.1139 47.1656 35.3338C46.6347 35.5537 46.1524 35.8761 45.7461 36.2824L40.2773 41.7512L28.2461 29.7199C27.4257 28.9001 26.3133 28.4395 25.1535 28.4395C23.9937 28.4395 22.8813 28.9001 22.0609 29.7199L10.9375 40.8434V15.3125H59.0625ZM10.9375 47.0312L25.1562 32.8125L47.0312 54.6875H10.9375V47.0312ZM59.0625 54.6875H53.2191L43.3754 44.8438L48.8441 39.375L59.0625 49.5961V54.6875ZM39.375 27.3438C39.375 26.6948 39.5674 26.0604 39.928 25.5208C40.2885 24.9812 40.801 24.5606 41.4006 24.3123C42.0001 24.0639 42.6599 23.9989 43.2964 24.1255C43.9329 24.2522 44.5176 24.5647 44.9764 25.0236C45.4353 25.4824 45.7478 26.0671 45.8745 26.7036C46.0011 27.3401 45.9361 27.9999 45.6877 28.5994C45.4394 29.199 45.0188 29.7115 44.4792 30.072C43.9396 30.4326 43.3052 30.625 42.6562 30.625C41.786 30.625 40.9514 30.2793 40.3361 29.6639C39.7207 29.0486 39.375 28.214 39.375 27.3438Z" fill="#89929C"/>
</svg>
