<svg width="30" height="30" viewBox="0 0 30 30" fill="none" xmlns="http://www.w3.org/2000/svg">
<g id="house-fill 2">
<path id="Vector" d="M22.5 2.8125H11.25C10.7527 2.8125 10.2758 3.01004 9.92418 3.36167C9.57254 3.71331 9.375 4.19022 9.375 4.6875V6.5625H7.5C7.00272 6.5625 6.52581 6.76004 6.17417 7.11167C5.82254 7.46331 5.625 7.94022 5.625 8.4375V26.25C5.625 26.4223 5.67245 26.5912 5.76216 26.7382C5.85186 26.8853 5.98035 27.0048 6.13351 27.0836C6.28668 27.1624 6.4586 27.1975 6.6304 27.1851C6.80221 27.1726 6.96725 27.113 7.10742 27.0129L13.125 22.7145L19.1438 27.0129C19.2839 27.1127 19.4488 27.172 19.6205 27.1843C19.7921 27.1966 19.9638 27.1614 20.1168 27.0826C20.2697 27.0039 20.3981 26.8845 20.4877 26.7376C20.5774 26.5908 20.6249 26.4221 20.625 26.25V21.6434L22.8926 23.2629C23.0327 23.363 23.1978 23.4226 23.3696 23.4351C23.5414 23.4475 23.7133 23.4124 23.8665 23.3336C24.0197 23.2548 24.1481 23.1353 24.2378 22.9882C24.3275 22.8412 24.375 22.6723 24.375 22.5V4.6875C24.375 4.19022 24.1775 3.71331 23.8258 3.36167C23.4742 3.01004 22.9973 2.8125 22.5 2.8125ZM22.5 20.6789L20.625 19.3359V8.4375C20.625 7.94022 20.4275 7.46331 20.0758 7.11167C19.7242 6.76004 19.2473 6.5625 18.75 6.5625H11.25V4.6875H22.5V20.6789Z" fill="white"/>
</g>
</svg>
